# xmcd
#
# Track frame offsets: 
#        150
#        21940
#        41207
#        58287
#        79410
#        96690
#        117127
#        130440
#        145712
#        164120
#        184192
#        205250
#        226392
#        246252
#
# Disc length: 3439 seconds
#
# Revision: 0
# Processed by: cddbd v1.4PL0 Copyright (c) Steve Scherf et al.
# Submitted via: ExactAudioCopy v0.95a1
#
DISCID=da0d6d0e
DTITLE=Calman Hart - The John Boy Drum
DYEAR=1997
DGENRE=Country
TTITLE0=Barrel Of Rain
TTITLE1=Blue Fire
TTITLE2=A Little Love Goes A Long Way
TTITLE3=The Other Man
TTITLE4=The Miner
TTITLE5=Up The River
TTITLE6=You Just Got Lucky This Time
TTITLE7=No Place Like Home
TTITLE8=Blue Morning Moon
TTITLE9=The Kick-Start Of His Heart
TTITLE10=Runaway Train
TTITLE11=Your Broken Heart
TTITLE12=Rosalee
TTITLE13=If I Die In A Nuclear War
EXTD=
EXTT0=
EXTT1=
EXTT2=
EXTT3=
EXTT4=
EXTT5=
EXTT6=
EXTT7=
EXTT8=
EXTT9=
EXTT10=
EXTT11=
EXTT12=
EXTT13=
PLAYORDER=
